<svg width="82" height="32" viewBox="0 0 82 32" fill="none" xmlns="http://www.w3.org/2000/svg">
<path fill-rule="evenodd" clip-rule="evenodd" d="M26 9.00133L14 2L2 9.00133V23.0013L14 30L26 23.0013V9.00133Z" stroke="#3CE1CD" stroke-width="3" stroke-linecap="round"/>
<path d="M3.07703 9.5L13.1961 15.012" stroke="#3CE1CD" stroke-width="3" stroke-linecap="round"/>
<path d="M15 15.012L25.381 9.5" stroke="#3CE1CD" stroke-width="3" stroke-linecap="round"/>
<path d="M14 16.0121V28.0121" stroke="#3CE1CD" stroke-width="3" stroke-linecap="round"/>
<path d="M37.232 7.488V12.132C36.376 12.492 35.44 12.672 34.424 12.672C33.048 12.672 31.952 12.248 31.136 11.4C30.336 10.568 29.936 9.46 29.936 8.076C29.936 6.692 30.348 5.584 31.172 4.752C31.996 3.904 33.084 3.48 34.436 3.48C35.476 3.48 36.296 3.624 36.896 3.912L36.74 5.184C36.156 4.864 35.388 4.704 34.436 4.704C33.452 4.704 32.672 5.02 32.096 5.652C31.536 6.26 31.256 7.068 31.256 8.076C31.256 9.092 31.528 9.904 32.072 10.512C32.632 11.136 33.416 11.448 34.424 11.448C35.072 11.448 35.564 11.384 35.9 11.256V8.712H34.052V7.488H37.232ZM44.2893 12.564H39.7293V3.612H44.1573V4.836H41.0373V7.332H43.9893V8.556H41.0373V11.328H44.2893V12.564ZM50.9484 12.564H46.3884V3.612H50.8164V4.836H47.6964V7.332H50.6484V8.556H47.6964V11.328H50.9484V12.564ZM59.9954 12.516H58.2194L54.5114 8.7V12.516H53.2274V3.636H54.5114V7.044L57.9194 3.636H59.6594L55.4114 7.824L59.9954 12.516ZM33.296 20.32C32.768 20.096 32.268 19.984 31.796 19.984C31.132 19.984 30.8 20.244 30.8 20.764C30.8 20.996 31.052 21.236 31.556 21.484C32.284 21.844 32.752 22.108 32.96 22.276C33.456 22.684 33.704 23.188 33.704 23.788C33.704 24.46 33.436 24.968 32.9 25.312C32.476 25.576 31.968 25.708 31.376 25.708C30.656 25.708 30.032 25.6 29.504 25.384L29.624 24.148C30.208 24.436 30.78 24.58 31.34 24.58C31.66 24.58 31.924 24.496 32.132 24.328C32.324 24.176 32.42 23.976 32.42 23.728C32.42 23.408 32.176 23.112 31.688 22.84C31.232 22.592 30.892 22.404 30.668 22.276C30.444 22.148 30.328 22.08 30.32 22.072C29.832 21.704 29.588 21.252 29.588 20.716C29.588 20.06 29.832 19.572 30.32 19.252C30.712 18.996 31.188 18.868 31.748 18.868C32.372 18.868 32.932 18.976 33.428 19.192L33.296 20.32ZM40.4939 25.516H39.2099V21.676C39.2099 21.092 39.1419 20.672 39.0059 20.416C38.8219 20.112 38.5019 19.96 38.0459 19.96C37.5419 19.96 37.1539 20.168 36.8819 20.584C36.6499 20.96 36.5339 21.432 36.5339 22V25.516H35.2499V15.964H36.5339V19.576C36.6939 19.312 36.9259 19.112 37.2299 18.976C37.5259 18.832 37.8419 18.76 38.1779 18.76C39.0179 18.76 39.6219 19.016 39.9899 19.528C40.3259 19.984 40.4939 20.684 40.4939 21.628V25.516ZM45.2873 19.996C44.7433 19.996 44.3113 20.212 43.9913 20.644C43.6873 21.068 43.5353 21.616 43.5353 22.288C43.5353 22.96 43.6873 23.508 43.9913 23.932C44.3113 24.364 44.7433 24.58 45.2873 24.58C45.8313 24.58 46.2593 24.364 46.5713 23.932C46.8833 23.516 47.0393 22.968 47.0393 22.288C47.0393 21.616 46.8833 21.068 46.5713 20.644C46.2593 20.212 45.8313 19.996 45.2873 19.996ZM45.2873 18.868C46.2793 18.868 47.0513 19.224 47.6033 19.936C48.0993 20.568 48.3473 21.352 48.3473 22.288C48.3473 23.224 48.0993 24.008 47.6033 24.64C47.0513 25.352 46.2793 25.708 45.2873 25.708C44.2873 25.708 43.5113 25.352 42.9593 24.64C42.4713 24.024 42.2273 23.24 42.2273 22.288C42.2273 21.336 42.4713 20.552 42.9593 19.936C43.5113 19.224 44.2873 18.868 45.2873 18.868ZM51.2566 27.28H49.9966V19H51.2566L51.2206 19.732C51.2526 19.692 51.2926 19.644 51.3406 19.588C51.3886 19.524 51.4446 19.46 51.5086 19.396C51.8606 19.044 52.3366 18.868 52.9366 18.868C53.8166 18.868 54.4926 19.164 54.9646 19.756C55.3806 20.3 55.5886 21.068 55.5886 22.06C55.5886 23.068 55.3686 23.868 54.9286 24.46C54.4646 25.092 53.7886 25.408 52.9006 25.408C52.1886 25.408 51.6406 25.148 51.2566 24.628V27.28ZM52.7926 20.032C52.2966 20.032 51.9126 20.24 51.6406 20.656C51.3846 21.032 51.2566 21.524 51.2566 22.132C51.2566 22.724 51.3806 23.216 51.6286 23.608C51.9086 24.032 52.2886 24.244 52.7686 24.244C53.8086 24.244 54.3286 23.528 54.3286 22.096C54.3286 20.72 53.8166 20.032 52.7926 20.032ZM58.654 27.28H57.394V19H58.654L58.618 19.732C58.65 19.692 58.69 19.644 58.738 19.588C58.786 19.524 58.842 19.46 58.906 19.396C59.258 19.044 59.734 18.868 60.334 18.868C61.214 18.868 61.89 19.164 62.362 19.756C62.778 20.3 62.986 21.068 62.986 22.06C62.986 23.068 62.766 23.868 62.326 24.46C61.862 25.092 61.186 25.408 60.298 25.408C59.586 25.408 59.038 25.148 58.654 24.628V27.28ZM60.19 20.032C59.694 20.032 59.31 20.24 59.038 20.656C58.782 21.032 58.654 21.524 58.654 22.132C58.654 22.724 58.778 23.216 59.026 23.608C59.306 24.032 59.686 24.244 60.166 24.244C61.206 24.244 61.726 23.528 61.726 22.096C61.726 20.72 61.214 20.032 60.19 20.032ZM66.0753 25.564H64.7913V18.844H66.0753V25.564ZM66.0753 17.692H64.7913V16.192H66.0753V17.692ZM73.2725 25.564H72.0245V21.544C72.0245 20.512 71.6485 19.996 70.8965 19.996C70.3845 19.996 69.9965 20.2 69.7325 20.608C69.5165 20.96 69.4085 21.412 69.4085 21.964V25.564H68.1605V20.68C68.1605 20.368 68.1525 20.076 68.1365 19.804C68.1285 19.524 68.1165 19.26 68.1005 19.012H69.3005V19.672C69.6925 19.136 70.2725 18.868 71.0405 18.868C72.5285 18.868 73.2725 19.696 73.2725 21.352V25.564ZM77.9818 20.056C76.9658 20.056 76.4578 20.764 76.4578 22.18C76.4578 23.492 76.9498 24.148 77.9338 24.148C78.4618 24.148 78.8618 23.964 79.1338 23.596C79.3818 23.252 79.5058 22.78 79.5058 22.18C79.5058 21.428 79.3818 20.888 79.1338 20.56C78.8938 20.224 78.5098 20.056 77.9818 20.056ZM80.7178 19.036V24.172C80.7178 26.244 79.7098 27.28 77.6938 27.28C76.9498 27.28 76.2738 27.16 75.6658 26.92L75.7738 25.696C76.3658 25.992 77.0098 26.14 77.7058 26.14C78.8498 26.14 79.4418 25.636 79.4818 24.628L79.4938 24.568C79.1418 25.064 78.6218 25.312 77.9338 25.312C76.9978 25.312 76.2818 24.968 75.7858 24.28C75.3698 23.712 75.1618 23 75.1618 22.144C75.1618 21.128 75.3818 20.34 75.8218 19.78C76.2938 19.188 76.9738 18.892 77.8618 18.892C78.5898 18.892 79.1378 19.076 79.5058 19.444V19.036H80.7178Z" fill="#47857D"/>
</svg>
